<!DOCTYPE svg PUBLIC "-//W3C//DTD SVG 1.1//EN" "http://www.w3.org/Graphics/SVG/1.1/DTD/svg11.dtd">
<!-- Uploaded to: SVG Repo, www.svgrepo.com, Transformed by: SVG Repo Mixer Tools -->
<svg height="140px" width="140px" version="1.1" id="Capa_1" xmlns="http://www.w3.org/2000/svg" xmlns:xlink="http://www.w3.org/1999/xlink" viewBox="-9.74 -9.74 181.82 181.82" xml:space="preserve" fill="#6ee7b7" data-darkreader-inline-fill="" style="--darkreader-inline-fill: #168362; --darkreader-inline-stroke: #6ee7b7;" stroke="#6ee7b7" stroke-width="6.980663" data-darkreader-inline-stroke="" transform="rotate(180)">
<g id="SVGRepo_bgCarrier" stroke-width="0"/>
<g id="SVGRepo_tracerCarrier" stroke-linecap="round" stroke-linejoin="round"/>
<g id="SVGRepo_iconCarrier"> <g> <g> <path style="fill: rgb(1, 0, 2); --darkreader-inline-fill: #e7e5e2;" d="M5.436,155.303l-2.864-9.857C0.865,139.574,0,133.548,0,127.539 c0-44.746,46.971-82.182,109.719-87.874V7.038l52.622,52.622l-52.622,52.622V79.81C59.705,84.548,18.247,111.249,8.3,145.445 L5.436,155.303z M115.686,21.442v23.736l-2.757,0.209C51.948,49.981,5.967,85.299,5.967,127.539c0,2.1,0.119,4.207,0.352,6.301 c15.269-32.782,56.333-56.494,106.163-60.253l3.21-0.245v24.53l38.218-38.218L115.686,21.442z" data-darkreader-inline-fill=""/> </g> </g> </g>
</svg>